<svg width="30" height="27" viewBox="0 0 30 27" fill="none" xmlns="http://www.w3.org/2000/svg">
<path d="M26.7487 2.66699V18.667H23.8907L24.564 18.2305C24.7256 18.125 24.8112 17.9683 24.8306 17.7875L24.835 17.7085C24.838 16.7598 23.1917 15.2594 21.2273 16.426L21.0987 16.5059L17.58 18.667L16.0774 18.6674C16.1916 17.9928 15.9663 17.3946 15.4882 17.3401L15.4159 17.336L2.74805 17.3357L2.74871 2.66699H26.7487Z" fill="#FF385C" fill-opacity="0.2"/>
<path d="M28.083 0C28.7859 0 29.3618 0.543918 29.4127 1.23383L29.4163 1.33333V20C29.4163 20.7029 28.8724 21.2788 28.1825 21.3297L28.083 21.3333H19.7857L21.8383 20H28.083V1.33333H1.41634V17.3355C1.07445 17.3355 0.79267 17.5929 0.75416 17.9245L0.749674 18.0022L0.749626 21.1549C0.381773 20.9421 0.125027 20.5586 0.0877045 20.1127L0.0830078 20V1.33333C0.0830078 0.630425 0.626926 0.0545565 1.31683 0.00365702L1.41634 0H28.083ZM14.7497 6C17.327 6 19.4163 8.08934 19.4163 10.6667C19.4163 13.244 17.327 15.3333 14.7497 15.3333C12.1723 15.3333 10.083 13.244 10.083 10.6667C10.083 8.08934 12.1723 6 14.7497 6ZM14.7497 7.33333C12.9087 7.33333 11.4163 8.82572 11.4163 10.6667C11.4163 12.5076 12.9087 14 14.7497 14C16.5906 14 18.083 12.5076 18.083 10.6667C18.083 8.82572 16.5906 7.33333 14.7497 7.33333ZM4.74967 4C5.11786 4 5.41634 4.29848 5.41634 4.66667C5.41634 5.03486 5.11786 5.33333 4.74967 5.33333C4.38148 5.33333 4.08301 5.03486 4.08301 4.66667C4.08301 4.29848 4.38148 4 4.74967 4Z" fill="#D42F4D"/>
<path d="M15.4165 17.3357C16.331 17.3357 16.4231 19.2103 15.171 20.1479L21.0993 16.5055C23.12 15.1935 24.8387 16.7389 24.8356 17.7082C24.8347 17.9222 24.7493 18.1095 24.5647 18.2302L13.075 25.6916C12.4435 26.1016 11.6681 26.2256 10.9403 26.033L1.24607 23.4669C0.953655 23.3895 0.75 23.1249 0.75 22.8224V18.0022C0.75 17.634 1.04848 17.3355 1.41667 17.3355L15.4165 17.3357Z" stroke="#0A0A0A" stroke-width="1.5"/>
<path d="M8.08301 20.6693H13.4503C14.2958 20.6693 14.9184 20.3942 15.3475 20.002" stroke="#0A0A0A" stroke-width="1.5"/>
</svg>
