<svg width="24" height="24" viewBox="0 0 24 24" fill="none" xmlns="http://www.w3.org/2000/svg">
<path d="M18.667 2.5C19.3924 2.49928 20.0931 2.78786 20.6221 3.30957C21.1514 3.83168 21.4674 4.54726 21.5 5.30859V15.0674C21.5007 15.8297 21.2156 16.5608 20.709 17.1074C20.2055 17.6506 19.5223 17.9702 18.8018 18.0059H14.5322L14.3818 18.1953L12 21.1953L9.61816 18.1953L9.46777 18.0059H5.33301C4.62965 18.0057 3.94889 17.7344 3.42578 17.2402C2.90217 16.7456 2.57476 16.0633 2.51172 15.3271V15.3262L2.5 15.1914V5.43848L2.5127 5.1543C2.57364 4.49635 2.84776 3.87775 3.29102 3.39941C3.79479 2.85578 4.47817 2.53545 5.19922 2.5H18.667ZM5.33301 2.87598C4.69093 2.87511 4.07572 3.12698 3.6123 3.57617C3.14901 4.02545 2.87175 4.63792 2.83398 5.28613L2.83301 5.30078V15.0664C2.83187 15.7157 3.07189 16.3439 3.50684 16.8213C3.94218 17.2989 4.5413 17.5901 5.18262 17.6299L5.19824 17.6309H9.625L11.6074 20.1367L12 20.6328L12.3926 20.1367L14.375 17.6309H18.667V17.6299C19.3091 17.6307 19.9243 17.379 20.3877 16.9297C20.8509 16.4805 21.1282 15.8688 21.166 15.2207L21.167 15.2061V5.43848C21.1678 4.78961 20.9278 4.1626 20.4932 3.68555C20.0578 3.20774 19.4588 2.91673 18.8174 2.87695L18.8018 2.87598H5.33301Z" fill="#D42F4D" stroke="#D42F4D"/>
</svg>
