<svg width="25" height="24" viewBox="0 0 25 24" fill="none" xmlns="http://www.w3.org/2000/svg">
<path d="M11.3636 19.6364H13.6364V17.4545H15.9091V15.2727H18.1818V13.0909H20.4545V8.72727H18.1818V6.54545H13.6364V8.72727H11.3636V6.54545H6.81818V8.72727H4.54545V13.0909H6.81818V15.2727H9.09091V17.4545H11.3636V19.6364ZM2.27273 19.6364H4.54545V17.4545H2.27273V19.6364ZM4.54545 21.8182H6.81818V19.6364H4.54545V21.8182ZM0 17.4545H2.27273V6.54545H0V17.4545ZM6.81818 24H18.1818V21.8182H6.81818V24ZM2.27273 6.54545H4.54545V4.36364H2.27273V6.54545ZM18.1818 21.8182H20.4545V19.6364H18.1818V21.8182ZM4.54545 4.36364H6.81818V2.18182H4.54545V4.36364ZM20.4545 19.6364H22.7273V17.4545H20.4545V19.6364ZM6.81818 2.18182H18.1818V0H6.81818V2.18182ZM22.7273 17.4545H25V6.54545H22.7273V17.4545ZM18.1818 4.36364H20.4545V2.18182H18.1818V4.36364ZM20.4545 6.54545H22.7273V4.36364H20.4545V6.54545Z" fill="#717375"/>
</svg>
